# xmcd
#
# Track frame offsets: 
#        150
#        13208
#        23823
#        33278
#        42073
#        52621
#        96421
#        108147
#        120821
#        137576
#        153859
#        172376
#
# Disc length: 3030 seconds
#
# Revision: 0
# Processed by: cddbd v1.5.2PL0 Copyright (c) Steve Scherf et al.
# Submitted via: ExactAudioCopy v0.95b4
#
DISCID=880bd40c
DTITLE=Mecki Mark Men - Livingroom
DYEAR=2007
DGENRE=Blues
TTITLE0=I can't see
TTITLE1=Your Smile
TTITLE2=Have You seen the Women
TTITLE3=What's Wrong?
TTITLE4=Dogbird
TTITLE5=Grandpas Bag
TTITLE6=Phase Reality
TTITLE7=Love makes Life
TTITLE8=Harmony
TTITLE9=One more song
TTITLE10=Party
TTITLE11=Meditation
EXTD=
EXTT0=
EXTT1=
EXTT2=
EXTT3=
EXTT4=
EXTT5=
EXTT6=
EXTT7=
EXTT8=
EXTT9=
EXTT10=
EXTT11=
PLAYORDER=
